<svg width="28" height="29" viewBox="0 0 28 29" fill="none" xmlns="http://www.w3.org/2000/svg">
<path d="M12.7129 6.86445C13.1034 7.25497 13.1034 7.88813 12.7128 8.27865L9.21284 11.7785C8.83476 12.1566 8.22616 12.1703 7.83136 11.8097L6.33136 10.4397C5.92356 10.0673 5.89492 9.43477 6.26736 9.02697C6.63982 8.61917 7.27234 8.59053 7.68014 8.96297L8.47446 9.68847L11.2987 6.86441C11.6892 6.47389 12.3224 6.47391 12.7129 6.86445Z" fill="#919191"/>
<path d="M12.7128 18.2787C13.1034 17.8881 13.1034 17.2549 12.7129 16.8645C12.3224 16.4739 11.6892 16.4739 11.2987 16.8643L8.47446 19.6885L7.68014 18.9629C7.27234 18.5905 6.63982 18.6191 6.26736 19.0269C5.89492 19.4347 5.92356 20.0673 6.33136 20.4397L7.83136 21.8097C8.22616 22.1703 8.83476 22.1565 9.21284 21.7785L12.7128 18.2787Z" fill="#919191"/>
<path d="M15.0057 19.0715C15.0057 18.5193 15.4535 18.0715 16.0057 18.0715H21.0057C21.5579 18.0715 22.0057 18.5193 22.0057 19.0715C22.0057 19.6237 21.5579 20.0715 21.0057 20.0715H16.0057C15.4535 20.0715 15.0057 19.6237 15.0057 19.0715Z" fill="#919191"/>
<path d="M16.0057 8.07153C15.4535 8.07153 15.0057 8.51925 15.0057 9.07153C15.0057 9.62381 15.4535 10.0715 16.0057 10.0715H21.0057C21.5579 10.0715 22.0057 9.62381 22.0057 9.07153C22.0057 8.51925 21.5579 8.07153 21.0057 8.07153H16.0057Z" fill="#919191"/>
<path d="M0.0057373 3.07153C0.0057373 1.41467 1.34888 0.0715332 3.00574 0.0715332H25.0057C26.6625 0.0715332 28.0057 1.41467 28.0057 3.07153V25.0715C28.0057 26.7283 26.6625 28.0715 25.0057 28.0715H3.00574C1.34888 28.0715 0.0057373 26.7283 0.0057373 25.0715V3.07153ZM3.00574 2.07153C2.45346 2.07153 2.00574 2.51925 2.00574 3.07153V25.0715C2.00574 25.6237 2.45346 26.0715 3.00574 26.0715H25.0057C25.5579 26.0715 26.0057 25.6237 26.0057 25.0715V3.07153C26.0057 2.51925 25.5579 2.07153 25.0057 2.07153H3.00574Z" fill="#919191"/>
</svg>
